<svg width="35" height="29" viewBox="0 0 35 29" fill="none" xmlns="http://www.w3.org/2000/svg">
<path d="M0 14.5C0 6.49187 6.49187 0 14.5 0H35V29H14.5C6.49187 29 0 22.5081 0 14.5Z" fill="currentColor"/>
<path fill-rule="evenodd" clip-rule="evenodd" d="M17.6303 6.88281C21.8519 6.88281 25.2797 10.3106 25.2797 14.5323C25.2797 18.7545 21.8519 22.1823 17.6303 22.1823C13.4081 22.1823 9.98047 18.7545 9.98047 14.5323C9.98047 10.3106 13.4081 6.88281 17.6303 6.88281ZM17.6303 9.18605C14.6791 9.18605 12.2837 11.5817 12.2837 14.5323C12.2837 17.4834 14.6791 19.879 17.6303 19.879C20.5808 19.879 22.9765 17.4834 22.9765 14.5323C22.9765 11.5817 20.5808 9.18605 17.6303 9.18605Z" fill="#2C2C2C"/>
<path fill-rule="evenodd" clip-rule="evenodd" d="M26.5871 14.8919C26.3889 14.8919 26.228 14.7313 26.228 14.5327C26.228 14.3349 26.3889 14.1738 26.5871 14.1738H27.7087C27.9068 14.1738 28.0676 14.3349 28.0676 14.5327C28.0676 14.7313 27.9068 14.8919 27.7087 14.8919H26.5871Z" fill="white"/>
<path fill-rule="evenodd" clip-rule="evenodd" d="M7.35904 14.8919C7.16092 14.8919 7 14.7313 7 14.5327C7 14.3349 7.16092 14.1738 7.35904 14.1738H8.48066C8.67877 14.1738 8.83953 14.3349 8.83953 14.5327C8.83953 14.7313 8.67877 14.8919 8.48066 14.8919H7.35904Z" fill="white"/>
<path fill-rule="evenodd" clip-rule="evenodd" d="M17.8929 5.48081C17.8929 5.67892 17.7322 5.83984 17.5336 5.83984C17.3359 5.83984 17.1748 5.67892 17.1748 5.48081V4.35919C17.1748 4.16107 17.3359 4.00032 17.5336 4.00032C17.7322 4.00032 17.8929 4.16107 17.8929 4.35919V5.48081Z" fill="white"/>
<path fill-rule="evenodd" clip-rule="evenodd" d="M17.8929 24.7093C17.8929 24.9074 17.7322 25.0684 17.5336 25.0684C17.3359 25.0684 17.1748 24.9074 17.1748 24.7093V23.5877C17.1748 23.3896 17.3359 23.2288 17.5336 23.2288C17.7322 23.2288 17.8929 23.3896 17.8929 23.5877V24.7093Z" fill="white"/>
<path fill-rule="evenodd" clip-rule="evenodd" d="M24.1894 8.38476C24.0493 8.52485 23.8219 8.52502 23.6815 8.3846C23.5417 8.24478 23.5415 8.01707 23.6816 7.87698L24.4747 7.08388C24.6148 6.94379 24.8424 6.94404 24.9822 7.08385C25.1226 7.22428 25.1226 7.45156 24.9825 7.59165L24.1894 8.38476Z" fill="white"/>
<path fill-rule="evenodd" clip-rule="evenodd" d="M10.5932 21.9824C10.4531 22.1225 10.2257 22.1227 10.0853 21.9823C9.94547 21.8424 9.94533 21.6147 10.0854 21.4746L10.8785 20.6815C11.0186 20.5414 11.2462 20.5417 11.386 20.6815C11.5264 20.8219 11.5264 21.0492 11.3863 21.1893L10.5932 21.9824Z" fill="white"/>
<path fill-rule="evenodd" clip-rule="evenodd" d="M23.6812 21.1874C23.5411 21.0473 23.5409 20.8199 23.6813 20.6795C23.8211 20.5397 24.0488 20.5396 24.1889 20.6797L24.982 21.4728C25.1221 21.6129 25.1219 21.8404 24.9821 21.9803C24.8416 22.1207 24.6144 22.1206 24.4743 21.9805L23.6812 21.1874Z" fill="white"/>
<path fill-rule="evenodd" clip-rule="evenodd" d="M10.085 7.59369C9.94488 7.45359 9.94471 7.22619 10.0851 7.08577C10.2249 6.94596 10.4527 6.94582 10.5927 7.08591L11.3858 7.87901C11.5259 8.0191 11.5257 8.2467 11.3859 8.38651C11.2454 8.52693 11.0182 8.52688 10.8781 8.38679L10.085 7.59369Z" fill="white"/>
<circle cx="17.5" cy="15.5" r="6.5" fill="#4B4A4A"/>
<path fill-rule="evenodd" clip-rule="evenodd" d="M16.2842 7.73676C16.2842 6.99383 16.8873 6.39062 17.6304 6.39062C18.373 6.39062 18.9765 6.99383 18.9765 7.73676L18.9765 13.1117C18.9765 13.8549 18.373 14.4578 17.6304 14.4578C16.8873 14.4578 16.2842 13.8549 16.2842 13.1117L16.2842 7.73676Z" fill="white"/>
</svg>
