<svg width="22" height="22" viewBox="0 0 22 22" fill="none" xmlns="http://www.w3.org/2000/svg">
<circle cx="11" cy="11" r="11" fill="#2C2C2C"/>
<path d="M16.4757 7.97403C16.4329 7.65492 16.3297 7.35489 16.1797 7.06788C16.0337 6.78926 15.8434 6.54039 15.6109 6.32223C15.3818 6.10686 15.1212 5.9315 14.8292 5.79566C14.516 5.64913 14.1871 5.55378 13.84 5.51843C13.339 5.46586 12.8547 5.5254 12.3851 5.7017C11.9948 5.84823 11.6541 6.06267 11.3581 6.33991C10.8645 6.80321 10.3738 7.26977 9.88171 7.73543C9.84287 7.77218 9.80501 7.81172 9.76224 7.85451H9.80993C9.9648 7.84242 10.1197 7.82707 10.2755 7.8187C10.4972 7.808 10.7175 7.828 10.9363 7.86289C11.1816 7.90103 11.422 7.95825 11.6536 8.04849C11.6802 8.05919 11.6939 8.05081 11.7102 8.03407C11.8208 7.92429 11.9304 7.81498 12.0435 7.70799C12.1718 7.58519 12.3026 7.46611 12.4309 7.34376C12.5784 7.20189 12.748 7.09257 12.9442 7.02234C13.2249 6.92093 13.512 6.89488 13.8075 6.95442C14.1777 7.02932 14.4732 7.21538 14.6999 7.49727C14.925 7.77823 15.0194 8.10105 14.9904 8.45364C14.9604 8.82019 14.7967 9.12626 14.5199 9.3849C13.8552 10.0078 13.1958 10.6338 12.5361 11.2604C12.4141 11.3758 12.2907 11.4893 12.1408 11.5735C11.9368 11.6889 11.7155 11.7558 11.48 11.7712C11.1791 11.7917 10.8935 11.7307 10.6304 11.5902C10.306 11.4163 10.0842 11.1614 9.96327 10.8269C9.95442 10.8032 9.94163 10.7804 9.92541 10.746C9.85363 10.8009 9.78431 10.8446 9.72679 10.8995C9.42835 11.1781 9.13287 11.4591 8.8369 11.7391C8.82559 11.7498 8.80937 11.7605 8.80544 11.7749C8.80052 11.7917 8.79806 11.8131 8.80544 11.8275C8.82166 11.8586 8.84673 11.8856 8.86689 11.9168C9.06699 12.2229 9.32609 12.4787 9.63976 12.6825C10.0174 12.9276 10.4303 13.0932 10.8871 13.1625C11.1236 13.1983 11.3605 13.209 11.598 13.1923C11.92 13.1695 12.2322 13.0992 12.5292 12.9802C12.8325 12.8597 13.1118 12.7001 13.3537 12.4871C13.5336 12.3289 13.7087 12.1643 13.8822 12.0001C14.4211 11.4916 14.957 10.9809 15.4983 10.4747C15.7313 10.2571 15.9452 10.0268 16.106 9.75654C16.2835 9.45884 16.4093 9.14346 16.4634 8.80388C16.5076 8.52897 16.5135 8.25127 16.4762 7.97403L16.4757 7.97403Z" fill="white"/>
<path d="M12.1029 14.1601C11.8955 14.1768 11.6876 14.1884 11.4787 14.1768C11.1086 14.1578 10.7489 14.0945 10.4019 13.9699C10.3464 13.9494 10.3139 13.9531 10.2687 13.9973C10.0559 14.207 9.83721 14.4117 9.61949 14.6163C9.48089 14.7475 9.32903 14.8614 9.14915 14.9391C8.76531 15.1032 8.3741 15.1223 7.97798 14.9842C7.61674 14.8581 7.34644 14.6293 7.17 14.3066C7.0201 14.0317 6.96751 13.7373 7.02157 13.4304C7.07318 13.1434 7.19653 12.8886 7.41524 12.6802C7.53122 12.5695 7.64524 12.4598 7.76123 12.3491C7.97896 12.1421 8.19667 11.9347 8.4144 11.7278C8.56921 11.5803 8.72501 11.4338 8.87981 11.2873C8.95796 11.2125 9.03463 11.1362 9.11376 11.0622C9.23318 10.9502 9.35556 10.8409 9.47253 10.7255C9.65389 10.5456 9.85883 10.4005 10.1055 10.3126C10.3709 10.2172 10.6442 10.1972 10.9209 10.253C11.4217 10.353 11.78 10.6232 11.9928 11.065C12.0193 11.1208 12.0419 11.1794 12.0709 11.2473C12.1324 11.2032 12.1982 11.1664 12.2508 11.1176C12.5604 10.8283 12.8671 10.5353 13.1758 10.2451C13.2072 10.2154 13.2057 10.1902 13.1846 10.1582C13.0612 9.97957 12.9305 9.80703 12.7718 9.65355C12.4789 9.37032 12.1378 9.15453 11.75 9.0071C11.5161 8.91781 11.2733 8.85967 11.0226 8.82712C10.8098 8.80108 10.5975 8.79271 10.3862 8.80945C10.0564 8.83549 9.73695 8.90944 9.43274 9.03547C9.15604 9.14988 8.89802 9.29405 8.67539 9.48798C8.48912 9.64983 8.30777 9.81771 8.12937 9.987C7.5519 10.5311 6.97442 11.0762 6.3994 11.6226C6.27506 11.7403 6.15906 11.8668 6.05733 12.0035C5.90251 12.2119 5.77817 12.4356 5.68381 12.6751C5.56045 12.9904 5.5 13.3155 5.5 13.6512C5.5 13.9191 5.53637 14.1809 5.61451 14.4372C5.70494 14.7325 5.84354 15.0088 6.02734 15.2636C6.19444 15.4957 6.39201 15.7008 6.62497 15.8757C7.00095 16.1589 7.4241 16.3458 7.89596 16.4389C8.10877 16.4807 8.32354 16.5021 8.54028 16.5007C8.78799 16.4984 9.0347 16.4672 9.27355 16.4091C9.5011 16.3542 9.71636 16.264 9.92524 16.1617C10.1041 16.0738 10.2737 15.971 10.4211 15.8436C10.6615 15.6366 10.8915 15.4185 11.1229 15.2032C11.4198 14.9269 11.7157 14.647 12.011 14.3684C12.0877 14.2968 12.1609 14.2219 12.2361 14.1493C12.2361 14.1456 12.2337 14.1433 12.2322 14.14C12.1894 14.1461 12.1467 14.1554 12.1025 14.1591L12.1029 14.1601Z" fill="white"/>
</svg>
