<svg width="22" height="22" viewBox="0 0 22 22" fill="none" xmlns="http://www.w3.org/2000/svg">
<circle cx="11" cy="11" r="11" fill="#557FB9"/>
<path d="M11 4.39844C7.96263 4.39844 5.5 6.7995 5.5 9.76094C5.5 10.9271 5.8921 11.9971 6.54385 12.8734C6.55554 12.8944 6.55737 12.9179 6.57067 12.938L10.2373 18.3005C10.4074 18.5492 10.6938 18.6984 11 18.6984C11.3062 18.6984 11.5926 18.5492 11.7627 18.3005L15.4293 12.938C15.4429 12.9179 15.4445 12.8944 15.4561 12.8734C16.1079 11.9971 16.5 10.9271 16.5 9.76094C16.5 6.7995 14.0374 4.39844 11 4.39844ZM11 11.5484C9.98754 11.5484 9.16667 10.7481 9.16667 9.76094C9.16667 8.77379 9.98754 7.97344 11 7.97344C12.0125 7.97344 12.8333 8.77379 12.8333 9.76094C12.8333 10.7481 12.0125 11.5484 11 11.5484Z" fill="white"/>
</svg>
