<svg width="22" height="22" viewBox="0 0 22 22" fill="none" xmlns="http://www.w3.org/2000/svg">
<circle cx="11" cy="11" r="11" fill="#557FB9"/>
<g clip-path="url(#clip0_6005_7912)">
<path d="M11.2529 9.95997C12.0452 9.95997 12.8051 9.66 13.3654 9.12605C13.9257 8.59211 14.2404 7.86792 14.2404 7.1128C14.2404 6.35768 13.9257 5.63349 13.3654 5.09954C12.8051 4.56559 12.0452 4.26562 11.2529 4.26562C10.4605 4.26563 9.70065 4.56559 9.14037 5.09954C8.5801 5.63349 8.26534 6.35768 8.26534 7.1128C8.26534 7.86792 8.5801 8.59211 9.14037 9.12605C9.70065 9.66 10.4605 9.95997 11.2529 9.95997ZM11.2529 11.2109C7.28075 11.2109 4.73438 13.2999 4.73438 14.317V16.2162H17.7714V14.317C17.7714 13.087 15.3607 11.2109 11.2529 11.2109Z" fill="white"/>
</g>
<defs>
<clipPath id="clip0_6005_7912">
<rect width="14.6667" height="14.6667" fill="white" transform="translate(4.19141 2.09375)"/>
</clipPath>
</defs>
</svg>
