<svg width="22" height="22" viewBox="0 0 22 22" fill="none" xmlns="http://www.w3.org/2000/svg">
<path d="M11 22C17.0751 22 22 17.0751 22 11C22 4.92487 17.0751 0 11 0C4.92487 0 0 4.92487 0 11C0 17.0751 4.92487 22 11 22Z" fill="#2C2C2C"/>
<path d="M3.27518 13.4965C3.26989 13.5322 3.24439 13.5577 3.21126 13.5577C3.17812 13.5577 3.15263 13.5322 3.14753 13.4957L3.03125 12.6255L3.14753 11.7408C3.15243 11.7039 3.17792 11.6784 3.21126 11.6784C3.2442 11.6784 3.26969 11.7039 3.27518 11.7408L3.41362 12.6265L3.27518 13.4965ZM3.86755 14.0252C3.86206 14.063 3.83461 14.0895 3.80069 14.0895C3.76775 14.0895 3.73892 14.063 3.73441 14.0252L3.57794 12.6253L3.73441 11.1941C3.73912 11.1572 3.76775 11.1298 3.80069 11.1298C3.83461 11.1298 3.86206 11.1566 3.86755 11.1941L4.0456 12.6253L3.86755 14.0252ZM4.50679 14.2622C4.50228 14.3077 4.46816 14.3401 4.42718 14.3401C4.38483 14.3401 4.3513 14.3077 4.34718 14.2622L4.19874 12.6265L4.34718 10.9286C4.3509 10.8825 4.38483 10.8496 4.42718 10.8496C4.46816 10.8496 4.50209 10.8825 4.50679 10.9286L4.67523 12.6265L4.50679 14.2622ZM5.15231 14.3142C5.1476 14.3664 5.10681 14.4058 5.05838 14.4058C5.00877 14.4058 4.96818 14.3664 4.96406 14.3142L4.82386 12.6265L4.96406 10.8819C4.96818 10.8294 5.00877 10.79 5.05838 10.79C5.10681 10.79 5.1476 10.8294 5.15231 10.8819L5.31133 12.6265L5.15231 14.3142ZM5.80135 14.3277C5.79801 14.3883 5.75076 14.4332 5.69487 14.4332C5.63722 14.4332 5.59154 14.3883 5.58762 14.3277L5.45506 12.6263L5.58762 11.0078C5.59173 10.9476 5.63722 10.9027 5.69487 10.9027C5.75174 10.9027 5.79801 10.9476 5.80135 11.007L5.95155 12.6263L5.80135 14.3277ZM6.45667 14.3287V14.3277C6.45274 14.3948 6.3996 14.4477 6.33568 14.4477C6.27156 14.4477 6.21842 14.3946 6.2147 14.3287L6.09097 12.6273L6.2147 9.99405C6.21842 9.92699 6.27156 9.87405 6.33568 9.87405C6.3998 9.87405 6.45294 9.92719 6.45667 9.99307L6.59687 12.6273L6.45667 14.3287ZM7.10708 14.3277V14.3268C7.10316 14.4009 7.04453 14.4599 6.97198 14.4599C6.9008 14.4599 6.84197 14.4009 6.83844 14.3268L6.72158 12.6363L6.83844 9.4007C6.84197 9.32658 6.9008 9.26795 6.97198 9.26795C7.04453 9.26795 7.10316 9.32658 7.10708 9.4007L7.23865 12.6363L7.10708 14.3277ZM7.78181 14.3017V14.3007C7.77887 14.3832 7.71396 14.4473 7.63416 14.4473C7.55435 14.4473 7.48945 14.3832 7.48651 14.3017L7.37807 12.6285C7.37807 12.6285 7.48651 9.12324 7.48651 9.12226C7.48964 9.04068 7.55435 8.97539 7.63416 8.97539C7.71396 8.97539 7.77907 9.04068 7.78181 9.12226L7.90436 12.6285L7.78181 14.3017ZM8.45262 14.2905C8.44948 14.3803 8.37909 14.4507 8.29144 14.4507C8.20359 14.4507 8.1332 14.3803 8.13006 14.2913L8.02888 12.6281L8.13006 9.0048C8.1332 8.9146 8.20359 8.8444 8.29144 8.8444C8.37909 8.8444 8.44968 8.9146 8.45262 9.0048L8.56498 12.6281L8.45262 14.2905ZM9.12774 14.2758V14.2748C9.1246 14.3719 9.04872 14.4489 8.95244 14.4489C8.85753 14.4489 8.78008 14.3719 8.77832 14.2758L8.68537 12.6285L8.77734 9.09775C8.78008 8.99931 8.85734 8.92323 8.95244 8.92323C9.04872 8.92323 9.1246 8.99931 9.12774 9.09775L9.23206 12.6285L9.12774 14.2758ZM9.80835 14.266V14.2646C9.80678 14.3703 9.72325 14.4517 9.62011 14.4517C9.51619 14.4517 9.43383 14.3703 9.43069 14.266L9.34677 12.6283L9.43089 9.22677C9.43403 9.12128 9.51638 9.03872 9.62031 9.03872C9.72345 9.03872 9.80698 9.12128 9.80855 9.22677L9.90365 12.6292L9.80835 14.266ZM10.5027 14.0932L10.4943 14.2536C10.4933 14.3095 10.4697 14.3601 10.4339 14.3966C10.397 14.4324 10.3464 14.4554 10.2929 14.4554C10.2305 14.4554 10.1756 14.4268 10.138 14.3817C10.1101 14.3489 10.0929 14.3066 10.0909 14.262C10.0903 14.2601 10.0903 14.2575 10.0903 14.2548C10.0903 14.2548 10.0129 12.63 10.0129 12.6273L10.0893 8.61871L10.0903 8.58028C10.0909 8.51008 10.1282 8.44753 10.1839 8.41164C10.215 8.39086 10.2519 8.3787 10.2931 8.3787C10.3335 8.3787 10.3717 8.39125 10.4037 8.41341C10.458 8.44968 10.4935 8.51067 10.4945 8.58047L10.5796 12.6292L10.5027 14.0932ZM11.1774 14.2326V14.2307C11.176 14.3491 11.079 14.4456 10.9617 14.4456C10.8441 14.4456 10.7472 14.3491 10.746 14.2317L10.7015 13.4414L10.6578 12.63L10.746 8.23654V8.21438C10.7462 8.14771 10.7776 8.0881 10.826 8.0479C10.8631 8.01751 10.9107 7.99908 10.9617 7.99908C11.0023 7.99908 11.04 8.01026 11.0721 8.02908C11.1335 8.06751 11.1764 8.13555 11.1784 8.2134L11.2739 12.6298L11.1774 14.2326ZM17.0076 14.4499C17.0076 14.4499 11.5794 14.4499 11.5737 14.4499C11.4565 14.4379 11.3637 14.3446 11.3617 14.2244V8.00378C11.3637 7.88927 11.4031 7.83025 11.5506 7.77358C11.9312 7.62612 12.3622 7.53906 12.8051 7.53906C14.6121 7.53906 16.0927 8.92519 16.2498 10.6909C16.4823 10.5939 16.7392 10.5386 17.0076 10.5386C18.0896 10.5386 18.9669 11.4163 18.9669 12.499C18.9669 13.5816 18.0896 14.4499 17.0076 14.4499Z" fill="white"/>
</svg>
